M48
; DRILL file {KiCad 9.0.7} date 2026-02-17T01:20:28+0530
; FORMAT={-:-/ absolute / metric / decimal}
; #@! TF.CreationDate,2026-02-17T01:20:28+05:30
; #@! TF.GenerationSoftware,Kicad,Pcbnew,9.0.7
; #@! TF.FileFunction,MixedPlating,1,2
FMAT,2
METRIC
; #@! TA.AperFunction,Plated,PTH,ComponentDrill
T1C0.800
; #@! TA.AperFunction,Plated,PTH,ComponentDrill
T2C0.900
; #@! TA.AperFunction,Plated,PTH,ComponentDrill
T3C1.000
; #@! TA.AperFunction,Plated,PTH,ComponentDrill
T4C1.100
; #@! TA.AperFunction,Plated,PTH,ComponentDrill
T5C1.300
; #@! TA.AperFunction,Plated,PTH,ComponentDrill
T6C3.500
; #@! TA.AperFunction,NonPlated,NPTH,ComponentDrill
T7C3.200
%
G90
G05
T1
X50.0Y-125.0
X57.62Y-125.0
X75.0Y-50.0
X75.0Y-52.54
X75.0Y-55.08
X75.0Y-57.62
X75.0Y-125.0
X80.0Y-125.0
X100.0Y-175.0
X100.0Y-177.54
X100.0Y-180.08
X100.0Y-182.62
X125.0Y-175.0
X125.0Y-177.54
X125.0Y-180.08
X125.0Y-182.62
T2
X75.0Y-75.0
X77.54Y-75.0
T3
X-25.5Y-214.0
X-25.5Y-218.0
X-25.5Y-225.0
X-25.5Y-229.0
X-0.5Y-214.0
X-0.5Y-218.0
X-0.5Y-225.0
X-0.5Y-229.0
X24.5Y-89.0
X24.5Y-93.0
X24.5Y-100.0
X24.5Y-104.0
X40.86Y-223.26
X43.4Y-223.26
X44.92Y-200.0
X45.94Y-223.26
X47.46Y-200.0
X48.48Y-223.26
X49.5Y-114.0
X49.5Y-118.0
X49.5Y-125.0
X49.5Y-129.0
X50.0Y-50.0
X50.0Y-52.54
X50.0Y-55.08
X50.0Y-75.0
X50.0Y-77.54
X50.0Y-80.08
X50.0Y-150.0
X50.0Y-175.0
X50.0Y-200.0
X50.0Y-225.0
X51.02Y-223.26
X52.54Y-175.0
X52.54Y-200.0
X53.56Y-223.26
X55.08Y-175.0
X55.08Y-200.0
X56.1Y-223.26
X57.62Y-175.0
X57.62Y-200.0
X58.64Y-223.26
X60.16Y-175.0
X60.16Y-200.0
X61.18Y-223.26
X62.7Y-175.0
X62.7Y-200.0
X63.72Y-223.26
X65.24Y-175.0
X65.24Y-200.0
X67.78Y-175.0
X67.78Y-200.0
X67.78Y-223.26
X69.92Y-200.0
X70.32Y-200.0
X70.32Y-223.26
X72.46Y-200.0
X72.86Y-175.0
X72.86Y-200.0
X72.86Y-223.26
X75.0Y-175.0
X75.0Y-177.54
X75.0Y-180.08
X75.0Y-200.0
X75.4Y-175.0
X75.4Y-200.0
X75.4Y-223.26
X77.54Y-200.0
X77.94Y-175.0
X77.94Y-200.0
X77.94Y-223.26
X80.08Y-200.0
X80.48Y-175.0
X80.48Y-200.0
X80.48Y-223.26
X82.62Y-200.0
X83.02Y-175.0
X83.02Y-200.0
X83.02Y-223.26
X85.16Y-200.0
X85.56Y-175.0
X85.56Y-223.26
X87.7Y-200.0
X90.24Y-200.0
X92.78Y-200.0
X94.92Y-75.0
X95.32Y-200.0
X97.46Y-75.0
X97.86Y-200.0
X100.0Y-50.0
X100.0Y-52.54
X100.0Y-55.08
X100.0Y-75.0
X100.4Y-200.0
X102.54Y-75.0
X102.94Y-200.0
X105.08Y-75.0
X105.48Y-200.0
X107.62Y-75.0
X108.02Y-200.0
X110.16Y-75.0
X112.7Y-75.0
X115.24Y-75.0
X117.78Y-75.0
X119.92Y-100.0
X120.32Y-75.0
X122.46Y-100.0
X122.86Y-75.0
X125.0Y-50.0
X125.0Y-52.54
X125.0Y-55.08
X125.0Y-100.0
X125.0Y-125.0
X125.0Y-127.54
X125.0Y-130.08
X125.0Y-132.62
X125.0Y-135.16
X125.0Y-200.0
X125.0Y-225.0
X125.0Y-227.54
X125.0Y-230.08
X125.0Y-232.62
X125.4Y-75.0
X127.54Y-100.0
X127.94Y-75.0
X130.08Y-100.0
X130.48Y-75.0
X132.62Y-100.0
X133.02Y-75.0
X135.16Y-100.0
X137.7Y-100.0
X140.24Y-100.0
X142.78Y-100.0
X145.32Y-100.0
X147.86Y-100.0
X150.4Y-100.0
X152.94Y-100.0
X155.48Y-100.0
X158.02Y-100.0
T4
X75.0Y-150.0
X77.54Y-150.0
X80.08Y-150.0
X100.0Y-125.0
X100.0Y-225.0
X102.54Y-225.0
X105.08Y-225.0
X110.16Y-125.0
T5
X50.0Y-100.0
X55.08Y-100.0
X75.0Y-100.0
X75.0Y-225.0
X80.08Y-100.0
X80.08Y-225.0
X100.0Y-100.0
X100.0Y-150.0
X100.0Y-200.0
X105.08Y-100.0
X105.08Y-150.0
X105.08Y-200.0
X125.0Y-75.0
X130.08Y-75.0
T6
X-24.5Y-201.0
X-24.5Y-238.0
X0.5Y-201.0
X0.5Y-238.0
X25.5Y-76.0
X25.5Y-113.0
X50.5Y-101.0
X50.5Y-138.0
X90.5Y-201.0
X90.5Y-238.0
X115.5Y-201.0
X115.5Y-238.0
X140.5Y-76.0
X140.5Y-113.0
X165.5Y-101.0
X165.5Y-138.0
T7
X-30.275Y-43.652
X-30.275Y-265.125
X171.275Y-43.652
X171.275Y-265.125
M30
