%TF.GenerationSoftware,KiCad,Pcbnew,9.0.7*%
%TF.CreationDate,2026-02-17T01:20:27+05:30*%
%TF.ProjectId,design,64657369-676e-42e6-9b69-6361645f7063,rev?*%
%TF.SameCoordinates,Original*%
%TF.FileFunction,Copper,L2,Bot*%
%TF.FilePolarity,Positive*%
%FSLAX46Y46*%
G04 Gerber Fmt 4.6, Leading zero omitted, Abs format (unit mm)*
G04 Created by KiCad (PCBNEW 9.0.7) date 2026-02-17 01:20:27*
%MOMM*%
%LPD*%
G01*
G04 APERTURE LIST*
G04 Aperture macros list*
%AMRoundRect*
0 Rectangle with rounded corners*
0 $1 Rounding radius*
0 $2 $3 $4 $5 $6 $7 $8 $9 X,Y pos of 4 corners*
0 Add a 4 corners polygon primitive as box body*
4,1,4,$2,$3,$4,$5,$6,$7,$8,$9,$2,$3,0*
0 Add four circle primitives for the rounded corners*
1,1,$1+$1,$2,$3*
1,1,$1+$1,$4,$5*
1,1,$1+$1,$6,$7*
1,1,$1+$1,$8,$9*
0 Add four rect primitives between the rounded corners*
20,1,$1+$1,$2,$3,$4,$5,0*
20,1,$1+$1,$4,$5,$6,$7,0*
20,1,$1+$1,$6,$7,$8,$9,0*
20,1,$1+$1,$8,$9,$2,$3,0*%
G04 Aperture macros list end*
%TA.AperFunction,ComponentPad*%
%ADD10R,1.700000X1.700000*%
%TD*%
%TA.AperFunction,ComponentPad*%
%ADD11C,1.700000*%
%TD*%
%TA.AperFunction,ComponentPad*%
%ADD12RoundRect,0.250000X-1.050000X-1.050000X1.050000X-1.050000X1.050000X1.050000X-1.050000X1.050000X0*%
%TD*%
%TA.AperFunction,ComponentPad*%
%ADD13C,2.600000*%
%TD*%
%TA.AperFunction,ComponentPad*%
%ADD14R,1.905000X2.000000*%
%TD*%
%TA.AperFunction,ComponentPad*%
%ADD15O,1.905000X2.000000*%
%TD*%
%TA.AperFunction,ComponentPad*%
%ADD16R,1.500000X1.500000*%
%TD*%
%TA.AperFunction,ComponentPad*%
%ADD17C,1.500000*%
%TD*%
%TA.AperFunction,ComponentPad*%
%ADD18R,1.600000X1.600000*%
%TD*%
%TA.AperFunction,ComponentPad*%
%ADD19O,1.600000X1.600000*%
%TD*%
%TA.AperFunction,ComponentPad*%
%ADD20C,6.500000*%
%TD*%
%TA.AperFunction,ComponentPad*%
%ADD21R,1.500000X3.000000*%
%TD*%
%TA.AperFunction,ComponentPad*%
%ADD22O,1.500000X3.000000*%
%TD*%
%TA.AperFunction,ComponentPad*%
%ADD23R,2.000000X2.000000*%
%TD*%
%TA.AperFunction,ComponentPad*%
%ADD24C,1.600000*%
%TD*%
%TA.AperFunction,ComponentPad*%
%ADD25RoundRect,0.249999X-0.850001X-0.850001X0.850001X-0.850001X0.850001X0.850001X-0.850001X0.850001X0*%
%TD*%
%TA.AperFunction,ComponentPad*%
%ADD26C,2.200000*%
%TD*%
%TA.AperFunction,ComponentPad*%
%ADD27R,1.800000X1.800000*%
%TD*%
%TA.AperFunction,ComponentPad*%
%ADD28C,1.800000*%
%TD*%
G04 APERTURE END LIST*
D10*
%TO.P,U55,1*%
%TO.N,GND*%
X125000000Y-225000000D03*
D11*
%TO.P,U55,2*%
%TO.N,N/C*%
X125000000Y-227540000D03*
%TO.P,U55,3*%
X125000000Y-230080000D03*
%TO.P,U55,4*%
X125000000Y-232620000D03*
%TD*%
D12*
%TO.P,M18,1*%
%TO.N,GND*%
X75000000Y-100000000D03*
D13*
%TO.P,M18,2*%
%TO.N,N/C*%
X80080000Y-100000000D03*
%TD*%
D10*
%TO.P,U10,1*%
%TO.N,GND*%
X50000000Y-75000000D03*
D11*
%TO.P,U10,2*%
%TO.N,N/C*%
X50000000Y-77540000D03*
%TO.P,U10,3*%
X50000000Y-80080000D03*
%TD*%
D12*
%TO.P,M19,1*%
%TO.N,GND*%
X100000000Y-100000000D03*
D13*
%TO.P,M19,2*%
%TO.N,N/C*%
X105080000Y-100000000D03*
%TD*%
D14*
%TO.P,U54,1*%
%TO.N,GND*%
X100000000Y-225000000D03*
D15*
%TO.P,U54,2*%
%TO.N,N/C*%
X102540000Y-225000000D03*
%TO.P,U54,3*%
X105080000Y-225000000D03*
%TD*%
D16*
%TO.P,U39,1*%
%TO.N,N/C*%
X125000000Y-175000000D03*
D17*
%TO.P,U39,2*%
X125000000Y-177540000D03*
%TO.P,U39,3*%
X125000000Y-180080000D03*
%TO.P,U39,4*%
X125000000Y-182620000D03*
%TD*%
D12*
%TO.P,M16,1*%
%TO.N,GND*%
X125000000Y-75000000D03*
D13*
%TO.P,M16,2*%
%TO.N,N/C*%
X130080000Y-75000000D03*
%TD*%
D10*
%TO.P,U52,1*%
%TO.N,N/C*%
X50000000Y-225000000D03*
%TD*%
%TO.P,U26,1*%
%TO.N,N/C*%
X125000000Y-125000000D03*
D11*
%TO.P,U26,2*%
X125000000Y-127540000D03*
%TO.P,U26,3*%
X125000000Y-130080000D03*
%TO.P,U26,4*%
X125000000Y-132620000D03*
%TO.P,U26,5*%
X125000000Y-135160000D03*
%TD*%
D18*
%TO.P,U35,1*%
%TO.N,GND*%
X50000000Y-175000000D03*
D19*
%TO.P,U35,2*%
%TO.N,N/C*%
X52540000Y-175000000D03*
%TO.P,U35,3*%
X55080000Y-175000000D03*
%TO.P,U35,4*%
X57620000Y-175000000D03*
%TO.P,U35,5*%
X60160000Y-175000000D03*
%TO.P,U35,6*%
X62700000Y-175000000D03*
%TO.P,U35,7*%
X65240000Y-175000000D03*
%TO.P,U35,8*%
X67780000Y-175000000D03*
%TO.P,U35,9*%
X72860000Y-175000000D03*
%TO.P,U35,10*%
X75400000Y-175000000D03*
%TO.P,U35,11*%
X77940000Y-175000000D03*
%TO.P,U35,12*%
X80480000Y-175000000D03*
%TO.P,U35,13*%
X83020000Y-175000000D03*
%TO.P,U35,14*%
X85560000Y-175000000D03*
%TO.P,U35,15*%
X85560000Y-223260000D03*
%TO.P,U35,16*%
X83020000Y-223260000D03*
%TO.P,U35,17*%
X80480000Y-223260000D03*
%TO.P,U35,18*%
X77940000Y-223260000D03*
%TO.P,U35,19*%
X75400000Y-223260000D03*
%TO.P,U35,20*%
X72860000Y-223260000D03*
%TO.P,U35,21*%
X70320000Y-223260000D03*
%TO.P,U35,22*%
X67780000Y-223260000D03*
%TO.P,U35,23*%
X63720000Y-223260000D03*
%TO.P,U35,24*%
X61180000Y-223260000D03*
%TO.P,U35,25*%
X58640000Y-223260000D03*
%TO.P,U35,26*%
X56100000Y-223260000D03*
%TO.P,U35,27*%
X53560000Y-223260000D03*
%TO.P,U35,28*%
X51020000Y-223260000D03*
%TO.P,U35,29*%
X48480000Y-223260000D03*
%TO.P,U35,30*%
X45940000Y-223260000D03*
%TO.P,U35,31*%
X43400000Y-223260000D03*
%TO.P,U35,32*%
X40860000Y-223260000D03*
%TD*%
D12*
%TO.P,BT53,1*%
%TO.N,GND*%
X75000000Y-225000000D03*
D13*
%TO.P,BT53,2*%
%TO.N,N/C*%
X80080000Y-225000000D03*
%TD*%
D10*
%TO.P,U3,1*%
%TO.N,GND*%
X50000000Y-50000000D03*
D11*
%TO.P,U3,2*%
%TO.N,N/C*%
X50000000Y-52540000D03*
%TO.P,U3,3*%
X50000000Y-55080000D03*
%TD*%
D16*
%TO.P,U38,1*%
%TO.N,N/C*%
X100000000Y-175000000D03*
D17*
%TO.P,U38,2*%
X100000000Y-177540000D03*
%TO.P,U38,3*%
X100000000Y-180080000D03*
%TO.P,U38,4*%
X100000000Y-182620000D03*
%TD*%
D16*
%TO.P,U4,1*%
%TO.N,GND*%
X75000000Y-50000000D03*
D17*
%TO.P,U4,2*%
%TO.N,N/C*%
X75000000Y-52540000D03*
%TO.P,U4,3*%
X75000000Y-55080000D03*
%TO.P,U4,4*%
X75000000Y-57620000D03*
%TD*%
D20*
%TO.P,U46,*%
%TO.N,*%
X500000Y-201000000D03*
X500000Y-238000000D03*
X115500000Y-201000000D03*
X115500000Y-238000000D03*
D21*
%TO.P,U46,1*%
%TO.N,N/C*%
X75000000Y-200000000D03*
D22*
%TO.P,U46,2*%
X77540000Y-200000000D03*
%TO.P,U46,3*%
X80080000Y-200000000D03*
%TO.P,U46,4*%
X82620000Y-200000000D03*
%TO.P,U46,5*%
X85160000Y-200000000D03*
%TO.P,U46,6*%
X87700000Y-200000000D03*
%TO.P,U46,7*%
X90240000Y-200000000D03*
%TO.P,U46,8*%
X92780000Y-200000000D03*
%TO.P,U46,9*%
X95320000Y-200000000D03*
%TO.P,U46,10*%
X97860000Y-200000000D03*
%TO.P,U46,11*%
X100400000Y-200000000D03*
%TO.P,U46,12*%
X102940000Y-200000000D03*
%TO.P,U46,13*%
X105480000Y-200000000D03*
%TO.P,U46,14*%
X108020000Y-200000000D03*
%TO.P,U46,15*%
X72460000Y-200000000D03*
%TO.P,U46,16*%
X69920000Y-200000000D03*
D23*
%TO.P,U46,A1*%
X-500000Y-214000000D03*
%TO.P,U46,A2*%
X-500000Y-225000000D03*
%TO.P,U46,K1*%
X-500000Y-218000000D03*
%TO.P,U46,K2*%
X-500000Y-229000000D03*
%TD*%
D10*
%TO.P,U9,1*%
%TO.N,GND*%
X125000000Y-50000000D03*
D11*
%TO.P,U9,2*%
%TO.N,N/C*%
X125000000Y-52540000D03*
%TO.P,U9,3*%
X125000000Y-55080000D03*
%TD*%
D20*
%TO.P,U45,*%
%TO.N,*%
X-24500000Y-201000000D03*
X-24500000Y-238000000D03*
X90500000Y-201000000D03*
X90500000Y-238000000D03*
D21*
%TO.P,U45,1*%
%TO.N,N/C*%
X50000000Y-200000000D03*
D22*
%TO.P,U45,2*%
X52540000Y-200000000D03*
%TO.P,U45,3*%
X55080000Y-200000000D03*
%TO.P,U45,4*%
X57620000Y-200000000D03*
%TO.P,U45,5*%
X60160000Y-200000000D03*
%TO.P,U45,6*%
X62700000Y-200000000D03*
%TO.P,U45,7*%
X65240000Y-200000000D03*
%TO.P,U45,8*%
X67780000Y-200000000D03*
%TO.P,U45,9*%
X70320000Y-200000000D03*
%TO.P,U45,10*%
X72860000Y-200000000D03*
%TO.P,U45,11*%
X75400000Y-200000000D03*
%TO.P,U45,12*%
X77940000Y-200000000D03*
%TO.P,U45,13*%
X80480000Y-200000000D03*
%TO.P,U45,14*%
X83020000Y-200000000D03*
%TO.P,U45,15*%
X47460000Y-200000000D03*
%TO.P,U45,16*%
X44920000Y-200000000D03*
D23*
%TO.P,U45,A1*%
X-25500000Y-214000000D03*
%TO.P,U45,A2*%
X-25500000Y-225000000D03*
%TO.P,U45,K1*%
X-25500000Y-218000000D03*
%TO.P,U45,K2*%
X-25500000Y-229000000D03*
%TD*%
D24*
%TO.P,C23,1*%
%TO.N,GND*%
X75000000Y-125000000D03*
%TO.P,C23,2*%
%TO.N,N/C*%
X80000000Y-125000000D03*
%TD*%
D20*
%TO.P,U21,*%
%TO.N,*%
X50500000Y-101000000D03*
X50500000Y-138000000D03*
X165500000Y-101000000D03*
X165500000Y-138000000D03*
D21*
%TO.P,U21,1*%
%TO.N,N/C*%
X125000000Y-100000000D03*
D22*
%TO.P,U21,2*%
X127540000Y-100000000D03*
%TO.P,U21,3*%
X130080000Y-100000000D03*
%TO.P,U21,4*%
X132620000Y-100000000D03*
%TO.P,U21,5*%
X135160000Y-100000000D03*
%TO.P,U21,6*%
X137700000Y-100000000D03*
%TO.P,U21,7*%
X140240000Y-100000000D03*
%TO.P,U21,8*%
X142780000Y-100000000D03*
%TO.P,U21,9*%
X145320000Y-100000000D03*
%TO.P,U21,10*%
X147860000Y-100000000D03*
%TO.P,U21,11*%
X150400000Y-100000000D03*
%TO.P,U21,12*%
X152940000Y-100000000D03*
%TO.P,U21,13*%
X155480000Y-100000000D03*
%TO.P,U21,14*%
X158020000Y-100000000D03*
%TO.P,U21,15*%
X122460000Y-100000000D03*
%TO.P,U21,16*%
X119920000Y-100000000D03*
D23*
%TO.P,U21,A1*%
X49500000Y-114000000D03*
%TO.P,U21,A2*%
X49500000Y-125000000D03*
%TO.P,U21,K1*%
X49500000Y-118000000D03*
%TO.P,U21,K2*%
X49500000Y-129000000D03*
%TD*%
D25*
%TO.P,D25,1*%
%TO.N,N/C*%
X100000000Y-125000000D03*
D26*
%TO.P,D25,2*%
X110160000Y-125000000D03*
%TD*%
D10*
%TO.P,J51,1*%
%TO.N,N/C*%
X125000000Y-200000000D03*
%TD*%
D14*
%TO.P,U29,1*%
%TO.N,GND*%
X75000000Y-150000000D03*
D15*
%TO.P,U29,2*%
%TO.N,N/C*%
X77540000Y-150000000D03*
%TO.P,U29,3*%
X80080000Y-150000000D03*
%TD*%
D12*
%TO.P,BT30,1*%
%TO.N,GND*%
X100000000Y-150000000D03*
D13*
%TO.P,BT30,2*%
%TO.N,N/C*%
X105080000Y-150000000D03*
%TD*%
D10*
%TO.P,J27,1*%
%TO.N,N/C*%
X50000000Y-150000000D03*
%TD*%
D12*
%TO.P,M17,1*%
%TO.N,GND*%
X50000000Y-100000000D03*
D13*
%TO.P,M17,2*%
%TO.N,N/C*%
X55080000Y-100000000D03*
%TD*%
D20*
%TO.P,U13,*%
%TO.N,*%
X25500000Y-76000000D03*
X25500000Y-113000000D03*
X140500000Y-76000000D03*
X140500000Y-113000000D03*
D21*
%TO.P,U13,1*%
%TO.N,N/C*%
X100000000Y-75000000D03*
D22*
%TO.P,U13,2*%
X102540000Y-75000000D03*
%TO.P,U13,3*%
X105080000Y-75000000D03*
%TO.P,U13,4*%
X107620000Y-75000000D03*
%TO.P,U13,5*%
X110160000Y-75000000D03*
%TO.P,U13,6*%
X112700000Y-75000000D03*
%TO.P,U13,7*%
X115240000Y-75000000D03*
%TO.P,U13,8*%
X117780000Y-75000000D03*
%TO.P,U13,9*%
X120320000Y-75000000D03*
%TO.P,U13,10*%
X122860000Y-75000000D03*
%TO.P,U13,11*%
X125400000Y-75000000D03*
%TO.P,U13,12*%
X127940000Y-75000000D03*
%TO.P,U13,13*%
X130480000Y-75000000D03*
%TO.P,U13,14*%
X133020000Y-75000000D03*
%TO.P,U13,15*%
X97460000Y-75000000D03*
%TO.P,U13,16*%
X94920000Y-75000000D03*
D23*
%TO.P,U13,A1*%
X24500000Y-89000000D03*
%TO.P,U13,A2*%
X24500000Y-100000000D03*
%TO.P,U13,K1*%
X24500000Y-93000000D03*
%TO.P,U13,K2*%
X24500000Y-104000000D03*
%TD*%
D10*
%TO.P,U5,1*%
%TO.N,GND*%
X100000000Y-50000000D03*
D11*
%TO.P,U5,2*%
%TO.N,N/C*%
X100000000Y-52540000D03*
%TO.P,U5,3*%
X100000000Y-55080000D03*
%TD*%
D12*
%TO.P,M48,1*%
%TO.N,GND*%
X100000000Y-200000000D03*
D13*
%TO.P,M48,2*%
%TO.N,N/C*%
X105080000Y-200000000D03*
%TD*%
D27*
%TO.P,D12,1*%
%TO.N,GND*%
X75000000Y-75000000D03*
D28*
%TO.P,D12,2*%
%TO.N,Net-(D12-R22)*%
X77540000Y-75000000D03*
%TD*%
D24*
%TO.P,R22,1*%
%TO.N,Net-(D12-R22)*%
X50000000Y-125000000D03*
%TO.P,R22,2*%
%TO.N,N/C*%
X57620000Y-125000000D03*
%TD*%
D10*
%TO.P,U37,1*%
%TO.N,GND*%
X75000000Y-175000000D03*
D11*
%TO.P,U37,2*%
%TO.N,N/C*%
X75000000Y-177540000D03*
%TO.P,U37,3*%
X75000000Y-180080000D03*
%TD*%
M02*
