%TF.GenerationSoftware,KiCad,Pcbnew,9.0.7*%
%TF.CreationDate,2026-02-16T02:37:33+05:30*%
%TF.ProjectId,test_design,74657374-5f64-4657-9369-676e2e6b6963,rev?*%
%TF.SameCoordinates,Original*%
%TF.FileFunction,Legend,Top*%
%TF.FilePolarity,Positive*%
%FSLAX46Y46*%
G04 Gerber Fmt 4.6, Leading zero omitted, Abs format (unit mm)*
G04 Created by KiCad (PCBNEW 9.0.7) date 2026-02-16 02:37:33*
%MOMM*%
%LPD*%
G01*
G04 APERTURE LIST*
%ADD10C,0.150000*%
%ADD11C,0.120000*%
G04 APERTURE END LIST*
D10*
X49238095Y-43954819D02*
X49238095Y-44764342D01*
X49238095Y-44764342D02*
X49285714Y-44859580D01*
X49285714Y-44859580D02*
X49333333Y-44907200D01*
X49333333Y-44907200D02*
X49428571Y-44954819D01*
X49428571Y-44954819D02*
X49619047Y-44954819D01*
X49619047Y-44954819D02*
X49714285Y-44907200D01*
X49714285Y-44907200D02*
X49761904Y-44859580D01*
X49761904Y-44859580D02*
X49809523Y-44764342D01*
X49809523Y-44764342D02*
X49809523Y-43954819D01*
X50809523Y-44954819D02*
X50238095Y-44954819D01*
X50523809Y-44954819D02*
X50523809Y-43954819D01*
X50523809Y-43954819D02*
X50428571Y-44097676D01*
X50428571Y-44097676D02*
X50333333Y-44192914D01*
X50333333Y-44192914D02*
X50238095Y-44240533D01*
X64833333Y-46859580D02*
X64785714Y-46907200D01*
X64785714Y-46907200D02*
X64642857Y-46954819D01*
X64642857Y-46954819D02*
X64547619Y-46954819D01*
X64547619Y-46954819D02*
X64404762Y-46907200D01*
X64404762Y-46907200D02*
X64309524Y-46811961D01*
X64309524Y-46811961D02*
X64261905Y-46716723D01*
X64261905Y-46716723D02*
X64214286Y-46526247D01*
X64214286Y-46526247D02*
X64214286Y-46383390D01*
X64214286Y-46383390D02*
X64261905Y-46192914D01*
X64261905Y-46192914D02*
X64309524Y-46097676D01*
X64309524Y-46097676D02*
X64404762Y-46002438D01*
X64404762Y-46002438D02*
X64547619Y-45954819D01*
X64547619Y-45954819D02*
X64642857Y-45954819D01*
X64642857Y-45954819D02*
X64785714Y-46002438D01*
X64785714Y-46002438D02*
X64833333Y-46050057D01*
X65785714Y-46954819D02*
X65214286Y-46954819D01*
X65500000Y-46954819D02*
X65500000Y-45954819D01*
X65500000Y-45954819D02*
X65404762Y-46097676D01*
X65404762Y-46097676D02*
X65309524Y-46192914D01*
X65309524Y-46192914D02*
X65214286Y-46240533D01*
D11*
%TO.C,U1*%
X45000000Y-48000000D02*
X55000000Y-48000000D01*
X55000000Y-48000000D02*
X55000000Y-52000000D01*
X55000000Y-52000000D02*
X45000000Y-52000000D01*
X45000000Y-52000000D02*
X45000000Y-48000000D01*
%TO.C,C1*%
X67500000Y-50000000D02*
G75*
G02*
X62500000Y-50000000I-2500000J0D01*
G01*
X62500000Y-50000000D02*
G75*
G02*
X67500000Y-50000000I2500000J0D01*
G01*
%TD*%
M02*
